<svg xmlns="http://www.w3.org/2000/svg" viewBox="0 0 1400 1000" fill="none">
  <rect width="1400" height="1000" rx="64" fill="#08111F"/>
  <defs>
    <linearGradient id="g1" x1="160" y1="120" x2="1260" y2="900" gradientUnits="userSpaceOnUse">
      <stop stop-color="#F97316" stop-opacity=".9"/>
      <stop offset=".45" stop-color="#FB7185" stop-opacity=".78"/>
      <stop offset="1" stop-color="#06B6D4" stop-opacity=".85"/>
    </linearGradient>
    <linearGradient id="g2" x1="340" y1="220" x2="980" y2="700" gradientUnits="userSpaceOnUse">
      <stop stop-color="#111827"/>
      <stop offset="1" stop-color="#0F172A"/>
    </linearGradient>
  </defs>
  <circle cx="290" cy="210" r="170" fill="#F97316" fill-opacity=".22"/>
  <circle cx="1120" cy="160" r="210" fill="#06B6D4" fill-opacity=".18"/>
  <path d="M180 250L540 110L820 230L470 380L180 250Z" fill="url(#g1)" fill-opacity=".72"/>
  <path d="M500 170L900 70L1220 220L830 320L500 170Z" fill="#FB7185" fill-opacity=".18"/>
  <rect x="120" y="120" width="1160" height="760" rx="44" fill="url(#g2)" stroke="#FFFFFF" stroke-opacity=".08"/>
  <rect x="180" y="190" width="420" height="250" rx="32" fill="#111C33" stroke="#FFFFFF" stroke-opacity=".08"/>
  <rect x="660" y="190" width="460" height="160" rx="32" fill="#1F2937" stroke="#FFFFFF" stroke-opacity=".08"/>
  <rect x="660" y="380" width="240" height="180" rx="32" fill="#0F766E" fill-opacity=".54"/>
  <rect x="930" y="380" width="190" height="180" rx="32" fill="#F97316" fill-opacity=".28"/>
  <rect x="180" y="490" width="420" height="220" rx="32" fill="#7C3AED" fill-opacity=".16" stroke="#FFFFFF" stroke-opacity=".08"/>
  <rect x="650" y="620" width="470" height="120" rx="28" fill="#FFFFFF" fill-opacity=".05"/>
  <path d="M690 645H1070" stroke="#FFFFFF" stroke-opacity=".14" stroke-width="8" stroke-linecap="round"/>
  <path d="M690 675H980" stroke="#FFFFFF" stroke-opacity=".08" stroke-width="8" stroke-linecap="round"/>
</svg>
