<svg width="1200" height="420" viewBox="0 0 1200 420" fill="none" xmlns="http://www.w3.org/2000/svg">
  <defs>
    <linearGradient id="bgF" x1="100" y1="30" x2="1100" y2="390" gradientUnits="userSpaceOnUse">
      <stop offset="0" stop-color="#09101B"/>
      <stop offset="1" stop-color="#030712"/>
    </linearGradient>
    <radialGradient id="horizonF" cx="0" cy="0" r="1" gradientUnits="userSpaceOnUse" gradientTransform="translate(600 170) rotate(90) scale(90 620)">
      <stop offset="0" stop-color="#06B6D4" stop-opacity="0.9"/>
      <stop offset="0.4" stop-color="#7C3AED" stop-opacity="0.35"/>
      <stop offset="1" stop-color="#7C3AED" stop-opacity="0"/>
    </radialGradient>
    <filter id="blurF" x="-40%" y="-40%" width="180%" height="180%">
      <feGaussianBlur stdDeviation="40"/>
    </filter>
    <pattern id="gridF" width="48" height="48" patternUnits="userSpaceOnUse">
      <path d="M48 0H0V48" stroke="#94A3B8" stroke-opacity="0.07"/>
    </pattern>
  </defs>
  <rect width="1200" height="420" rx="30" fill="url(#bgF)"/>
  <rect width="1200" height="420" rx="30" fill="url(#gridF)"/>
  <circle cx="286" cy="132" r="110" fill="#7C3AED" fill-opacity="0.16" filter="url(#blurF)"/>
  <circle cx="872" cy="120" r="120" fill="#06B6D4" fill-opacity="0.18" filter="url(#blurF)"/>
  <circle cx="612" cy="182" r="180" fill="url(#horizonF)" filter="url(#blurF)"/>
  <rect x="92" y="78" width="1016" height="264" rx="34" fill="#0F172A" fill-opacity="0.92" stroke="#FFFFFF" stroke-opacity="0.08"/>
  <path d="M150 252C288 176 420 146 606 146C782 146 928 178 1052 240" stroke="url(#horizonF)" stroke-width="12" stroke-linecap="round"/>
  <path d="M150 286H1052" stroke="#FFFFFF" stroke-opacity="0.08" stroke-width="2"/>
  <g>
    <rect x="160" y="118" width="220" height="102" rx="24" fill="#FFFFFF" fill-opacity="0.04" stroke="#FFFFFF" stroke-opacity="0.08"/>
    <rect x="194" y="150" width="92" height="16" rx="8" fill="#FFFFFF" fill-opacity="0.18"/>
    <rect x="194" y="178" width="152" height="12" rx="6" fill="#FFFFFF" fill-opacity="0.08"/>
  </g>
  <g>
    <rect x="490" y="118" width="220" height="102" rx="24" fill="#FFFFFF" fill-opacity="0.04" stroke="#FFFFFF" stroke-opacity="0.08"/>
    <rect x="524" y="150" width="132" height="16" rx="8" fill="#06B6D4" fill-opacity="0.8"/>
    <rect x="524" y="178" width="146" height="12" rx="6" fill="#FFFFFF" fill-opacity="0.08"/>
  </g>
  <g>
    <rect x="820" y="118" width="220" height="102" rx="24" fill="#FFFFFF" fill-opacity="0.04" stroke="#FFFFFF" stroke-opacity="0.08"/>
    <rect x="854" y="150" width="112" height="16" rx="8" fill="#7C3AED" fill-opacity="0.82"/>
    <rect x="854" y="178" width="150" height="12" rx="6" fill="#FFFFFF" fill-opacity="0.08"/>
  </g>
</svg>
